<svg t="1705135411495" class="icon" viewBox="0 0 1024 1024" version="1.1" xmlns="http://www.w3.org/2000/svg" p-id="5120" width="120" height="120"><path d="M908.969459 0.02361H124.943926A122.540927 122.540927 0 0 0 0.024 124.944536v774.111538a122.540927 122.540927 0 0 0 124.919926 124.919926h774.111538a122.540927 122.540927 0 0 0 124.919926-124.919926V133.272531A118.971929 118.971929 0 0 0 908.969459 0.02361z m-66.623961 753.489551h-68.210959a143.559914 143.559914 0 0 1-124.919926 99.936941 143.559914 143.559914 0 0 1-124.920925-99.539941H191.567886a33.31198 33.31198 0 1 1 0-66.62496h324.397807a132.455921 132.455921 0 0 1 124.919925-99.935941 132.455921 132.455921 0 0 1 124.919926 99.935941h66.62496a35.691979 35.691979 0 0 1 33.31198 33.31198c0 16.65699-8.327995 33.31298-24.983985 33.31298z m0-343.829795H485.428711A134.83492 134.83492 0 0 1 349.800792 512.000305a125.713925 125.713925 0 0 1-124.919926-99.93694h-33.31298a35.691979 35.691979 0 0 1-33.31198-33.311981 35.691979 35.691979 0 0 1 33.31198-33.31198h43.226974A118.971929 118.971929 0 0 1 349.799792 252.24446a132.851921 132.851921 0 0 1 124.919925 101.125939h356.916788a35.691979 35.691979 0 0 1 33.31198 33.312981 26.569984 26.569984 0 0 1-24.189986 23.396986z m-494.923705-84.46995a59.882964 59.882964 0 0 0 0 118.972929 63.451962 63.451962 0 0 0 63.054962-59.485964 59.485965 59.485965 0 0 0-63.054962-59.485965z m302.58482 452.88773a59.882964 59.882964 0 1 1 60.675964-59.882964 59.882964 59.882964 0 0 1-60.675964 59.882964z" p-id="5121" fill="#e6a23c"></path></svg>