<svg t="1705462294185" class="icon" viewBox="0 0 1247 1024" version="1.1" xmlns="http://www.w3.org/2000/svg" p-id="5437" width="120" height="120"><path d="M82.235785 292.759396m-82.235785 0a25 25 0 1 0 164.471571 0 25 25 0 1 0-164.471571 0Z" fill="#FFD000" p-id="5438"></path><path d="M621.702538 82.235785m-82.235785 0a25 25 0 1 0 164.471571 0 25 25 0 1 0-164.471571 0Z" fill="#FFD000" p-id="5439"></path><path d="M1164.458721 292.759396m-82.235785 0a25 25 0 1 0 164.471571 0 25 25 0 1 0-164.471571 0Z" fill="#FFD000" p-id="5440"></path><path d="M134.866688 394.73177c0 0 121.708962 128.287825 243.417925 82.235785s200.655316-138.156119 243.417925-266.443945 0 812.48956 0 812.48956-322.364279 9.868294-371.70575-92.10408-9.868294-141.445551-9.868294-174.339865-26.315451-131.577257-55.920334-192.431738S108.551237 398.021201 108.551237 398.021201L134.866688 394.73177z" fill="#FFD000" p-id="5441"></path><path d="M1139.787986 404.271121c0 0-47.367812 104.603919-77.630581 165.129457-30.262769 60.525538-57.56505 158.879537-57.893993 191.773852-0.328943 32.894314 38.815291 72.696434-11.841953 174.339865-50.328301 101.314488-372.69258 87.827819-372.69258 87.827819s-32.236428-941.106328 8.881465-812.48956c41.446836 128.616768 119.40636 221.707677 240.457437 269.07549 121.051076 47.367812 244.404754-79.60424 244.404754-79.60424L1139.787986 404.271121z" fill="#FFD000" p-id="5442"></path><path d="M289.469965 898.014777A104 29 0 1 1 289.469965 901.304208Z" fill="#FCFCFC" p-id="5443"></path></svg>