<svg t="1705053374910" class="icon" viewBox="0 0 1024 1024" version="1.1" xmlns="http://www.w3.org/2000/svg" p-id="5103" width="120" height="120"><path d="M56.888889 227.555556v625.777777c0 62.577778 51.2 113.777778 113.777778 113.777778h682.666666c62.577778 0 113.777778-51.2 113.777778-113.777778V227.555556H56.888889z m196.266667 514.844444c-62.577778 0-96.711111-14.222222-96.711112-42.666667 0-17.066667 11.377778-28.444444 25.6-28.444444 5.688889 0 14.222222 2.844444 28.444445 5.688889 17.066667 5.688889 31.288889 8.533333 39.822222 8.533333 25.6 0 39.822222-11.377778 39.822222-34.133333 0-11.377778-17.066667-22.755556-51.2-34.133334-56.888889-17.066667-82.488889-42.666667-82.488889-76.8 2.844444-56.888889 36.977778-88.177778 99.555556-91.022222 51.2 2.844444 76.8 17.066667 79.644444 39.822222 0 19.911111-11.377778 28.444444-25.6 31.288889-2.844444 0-11.377778-2.844444-22.755555-5.688889-14.222222-2.844444-22.755556-5.688889-31.288889-5.688888-19.911111 0-31.288889 8.533333-34.133333 25.6 0 11.377778 14.222222 22.755556 45.511111 31.288888 59.733333 17.066667 91.022222 48.355556 91.022222 91.022223-5.688889 54.044444-39.822222 82.488889-105.244444 85.333333z m324.266666 0c-8.533333 0-19.911111-2.844444-31.288889-17.066667l-102.4-113.777777v102.4c0 17.066667-11.377778 25.6-31.288889 25.6-19.911111 0-28.444444-8.533333-31.288888-25.6V483.555556c0-19.911111 11.377778-28.444444 31.288888-31.288889 19.911111 0 28.444444 11.377778 31.288889 31.288889v85.333333l99.555556-105.244445c8.533333-8.533333 14.222222-11.377778 22.755555-11.377777 17.066667 2.844444 28.444444 11.377778 31.288889 31.288889 0 8.533333-5.688889 19.911111-19.911111 31.288888l-76.8 76.8 93.866667 96.711112 2.844444 2.844444c11.377778 11.377778 14.222222 19.911111 14.222223 28.444444-2.844444 14.222222-14.222222 22.755556-34.133334 22.755556z m290.133334-113.777778c-5.688889 71.111111-45.511111 110.933333-122.311112 113.777778-76.8-5.688889-116.622222-42.666667-122.311111-113.777778V483.555556c0-19.911111 11.377778-31.288889 31.288889-31.288889 19.911111 0 28.444444 11.377778 31.288889 31.288889v142.222222c2.844444 42.666667 22.755556 65.422222 62.577778 65.422222 36.977778-2.844444 56.888889-25.6 62.577778-65.422222v-142.222222c0-19.911111 11.377778-31.288889 31.288889-31.288889 19.911111 0 28.444444 11.377778 31.288888 31.288889v145.066666z" fill="#3189FF" p-id="5104"></path><path d="M967.111111 227.555556H56.888889C25.6 227.555556 0 201.955556 0 170.666667V113.777778c0-31.288889 25.6-56.888889 56.888889-56.888889h910.222222c31.288889 0 56.888889 25.6 56.888889 56.888889v56.888889c0 31.288889-25.6 56.888889-56.888889 56.888889z" fill="#6CA9F7" opacity=".7" p-id="5105"></path></svg>