<svg t="1705135374079" class="icon" viewBox="0 0 1024 1024" version="1.1" xmlns="http://www.w3.org/2000/svg" p-id="4058" width="120" height="120"><path d="M486.85 648.9h-12.79c-3.03 0-5.48 2.45-5.48 5.48v60.18c0 3.03 2.45 5.48 5.48 5.48h12.79c28.94 0 38.78-8.07 38.78-35.57 0-26.61-10.12-35.57-38.78-35.57z" p-id="4059" fill="#1296db"></path><path d="M812.06 82.48H211.94c-46.98 0-85.07 38.09-85.07 85.07v688.91c0 46.98 38.09 85.07 85.07 85.07h600.12c46.98 0 85.07-38.09 85.07-85.07V167.55c0-46.99-38.09-85.07-85.07-85.07z m-517.32 142c20.69 0 37.46 16.77 37.46 37.46s-16.77 37.46-37.46 37.46-37.46-16.77-37.46-37.46 16.77-37.46 37.46-37.46z m0 171.8c20.69 0 37.46 16.77 37.46 37.46s-16.77 37.46-37.46 37.46-37.46-16.77-37.46-37.46 16.77-37.46 37.46-37.46z m19.3 427.17c-20.39 0-40.1-3.12-52.67-6.35-2.41-0.62-4.09-2.81-4.09-5.3v-28.01c0-3.63 3.46-6.25 6.96-5.27 12.84 3.59 31.74 6.07 48.11 6.07 25.85 0 34.28-6.28 34.28-24.81 0-15.84-5.62-21.52-35.4-29.29-41.59-10.16-53.67-22.72-53.67-59.78 0-43.94 26.13-60.67 71.37-60.67 19.68 0 35.61 2.82 46.21 6.17 2.27 0.72 3.8 2.84 3.8 5.22v26.18c0 3.56-3.33 6.18-6.79 5.32-11.16-2.78-28.37-5.52-41.54-5.52-22.2 0-31.47 4.48-31.47 22.12 0 13.45 4.5 18.23 33.16 25.41 46.64 11.95 56.76 27.5 56.76 66.05 0.01 40.64-21.35 62.46-75.02 62.46z m178.43-66.95h-18.41c-3.03 0-5.48 2.45-5.48 5.48v53.01c0 3.03-2.45 5.48-5.48 5.48h-31.75c-3.03 0-5.48-2.45-5.48-5.48V618.51c0-3.03 2.45-5.48 5.48-5.48h61.12c58.45 0 76.71 20.62 76.71 70.54 0 54.1-21.63 72.93-76.71 72.93z m274.25-4.79c0 51.11-29.79 71.73-82.05 71.73-52.54 0-81.49-17.04-81.49-71.73v-133.2c0-3.03 2.45-5.48 5.48-5.48h31.75c3.03 0 5.48 2.45 5.48 5.48v128.13c0 25.11 8.15 37.96 39.06 37.96 32.03 0 39.34-14.94 39.34-37.96V618.51c0-3.03 2.45-5.48 5.48-5.48h31.47c3.03 0 5.48 2.45 5.48 5.48v133.2z m0-317.97c0 20.69-16.77 37.46-37.46 37.46h-309.1c-20.69 0-37.46-16.77-37.46-37.46s16.77-37.46 37.46-37.46h309.1c20.69 0 37.46 16.77 37.46 37.46z m0-171.8c0 20.69-16.77 37.46-37.46 37.46h-309.1c-20.69 0-37.46-16.77-37.46-37.46s16.77-37.46 37.46-37.46h309.1c20.69 0 37.46 16.77 37.46 37.46z" p-id="4060" fill="#1296db"></path></svg>