<svg t="1705055091541" class="icon" viewBox="0 0 1024 1024" version="1.1" xmlns="http://www.w3.org/2000/svg" p-id="6100" width="120" height="120"><path d="M8.982456 512c0 277.809404 225.20814 503.017544 503.017544 503.017544s503.017544-225.20814 503.017544-503.017544S789.809404 8.982456 512 8.982456 8.982456 234.190596 8.982456 512z" fill="#809DFF" p-id="6101"></path><path d="M841.009404 479.357754L553.660632 822.20014l1.311438 2.676772-4.078035 1.329404-24.755649 29.426526a16.527719 16.527719 0 0 1-12.305965 6.682947c-4.078035 0-8.22793-2.676772-12.377825-6.682947L194.739649 475.333614c-6.826667-9.341754-8.22793-24.072982-2.694737-33.360842l89.339509-164.163368a39.361123 39.361123 0 0 1 30.360702-17.318176h411.091088c12.21614 0.718596 23.390316 7.150035 30.288842 17.390035l89.195789 166.714386c6.916491 10.689123 5.533193 25.330526-1.311438 34.690246v0.071859zM515.14386 725.566877l110.124912-266.814877H403.581754l111.580071 266.814877z m90.00421-300.912281l-90.722807-123.113543-90.722807 123.059649h181.445614v0.053894zM490.909193 766.562807l-126.275368-307.738947h-129.024l255.281403 307.738947z m-188.092632-444.559719l-53.768982 102.651508H343.129825l-40.295299-102.651508z m86.447158 95.752982l88.20772-116.215017H343.129825l46.08 116.232982h0.071859z m168.780351-116.215017l83.357193 109.406315 44.229614-109.406315h-127.586807z m171.025965 13.653333l-43.367298 102.579649h100.711298l-57.326035-102.579649zM677.097544 458.82386h-12.25207l-126.922106 314.565614 262.000281-314.565614H677.097544z" fill="#FFFFFF" p-id="6102"></path></svg>